<?xml version="1.0" standalone="no"?>
<!DOCTYPE svg PUBLIC "-//W3C//DTD SVG 20010904//EN"
 "http://www.w3.org/TR/2001/REC-SVG-20010904/DTD/svg10.dtd">
<svg version="1.0" xmlns="http://www.w3.org/2000/svg"
 width="1200.000000pt" height="1200.000000pt" viewBox="0 0 1200.000000 1200.000000"
 preserveAspectRatio="xMidYMid meet">
<metadata>
Created by potrace 1.14, written by Peter Selinger 2001-2017
</metadata>
<g transform="translate(0.000000,1200.000000) scale(0.100000,-0.100000)"
fill="#000000" stroke="none">
<path d="M1324 9665 c1 -8 5 -17 8 -21 4 -3 136 -8 295 -10 158 -1 306 -5 328
-8 22 -3 60 -7 85 -10 25 -3 56 -8 70 -11 14 -3 34 -7 45 -9 129 -25 272 -91
362 -167 39 -34 113 -123 113 -137 0 -7 4 -12 8 -12 5 0 19 -19 33 -41 13 -23
31 -52 39 -64 75 -113 225 -339 250 -375 17 -25 40 -58 51 -75 10 -16 40 -62
66 -101 27 -39 61 -91 77 -115 194 -293 1822 -2741 2801 -4214 395 -594 853
-1284 1018 -1532 239 -360 305 -453 321 -453 l22 0 -1 759 0 758 -35 53 c-46
68 23 -36 -646 972 l-592 890 87 132 c48 72 238 358 423 636 184 278 545 822
803 1210 459 692 1026 1546 1078 1625 15 22 54 81 87 130 l60 90 -3 -3260 c-1
-1793 -6 -3276 -10 -3295 -4 -19 -13 -60 -19 -90 -57 -293 -215 -467 -480
-530 -121 -28 -157 -31 -433 -35 -137 -2 -256 -4 -262 -4 -7 -1 -13 -10 -13
-21 0 -20 5 -20 1657 -18 1568 3 1656 4 1659 20 2 14 -5 18 -29 18 -179 1
-529 10 -557 15 -220 37 -312 76 -417 175 -111 107 -178 265 -209 496 -10 70
-12 5774 -3 5864 21 192 43 280 102 400 45 92 152 198 246 244 155 75 258 90
633 91 126 0 228 2 229 5 0 3 2 13 4 23 3 16 -50 17 -1048 15 l-1051 -3 -312
-470 c-172 -258 -319 -478 -326 -487 -7 -10 -445 -668 -973 -1463 -528 -794
-962 -1445 -965 -1445 -4 0 -1609 2408 -1645 2467 -5 9 -14 22 -18 27 -5 6
-212 317 -461 691 l-453 680 -1050 3 c-922 2 -1051 0 -1049 -13z"/>
<path d="M2190 8331 l0 -676 179 -267 178 -267 -2 -1663 c-2 -915 -5 -1683 -8
-1708 -3 -25 -9 -76 -12 -115 -4 -38 -9 -77 -10 -87 -2 -9 -7 -38 -11 -65 -3
-26 -8 -57 -10 -68 -2 -11 -7 -33 -10 -50 -15 -83 -60 -233 -99 -330 -170
-420 -520 -665 -967 -678 -49 -1 -88 -4 -89 -7 0 -3 -2 -13 -4 -22 -3 -17 62
-18 1251 -18 l1254 0 0 23 c0 21 -4 22 -73 23 -91 1 -263 30 -342 56 -221 75
-397 208 -520 393 -46 68 -75 124 -136 260 -24 54 -80 256 -93 335 -3 19 -8
46 -10 60 -10 54 -23 152 -33 245 -7 67 -16 3322 -9 3315 6 -7 530 -793 536
-805 14 -27 566 -850 572 -853 5 -2 8 -7 8 -12 0 -5 332 -507 738 -1117 406
-609 859 -1291 1007 -1515 221 -333 274 -407 293 -408 l22 0 0 668 0 669 -411
619 c-227 340 -491 738 -588 884 -97 146 -178 269 -180 275 -2 5 -7 12 -10 15
-4 3 -22 30 -41 60 -19 30 -38 60 -43 65 -4 6 -93 138 -197 295 -104 157 -193
290 -199 297 -6 7 -11 14 -11 17 0 2 -145 222 -322 487 -176 266 -460 693
-629 949 -170 256 -313 472 -319 480 -6 8 -145 218 -310 465 -227 343 -303
450 -319 451 l-21 1 0 -676z"/>
</g>
</svg>
