<?xml version="1.0" standalone="no"?>
<!DOCTYPE svg PUBLIC "-//W3C//DTD SVG 20010904//EN"
 "http://www.w3.org/TR/2001/REC-SVG-20010904/DTD/svg10.dtd">
<svg version="1.0" xmlns="http://www.w3.org/2000/svg"
 width="700.000000pt" height="700.000000pt" viewBox="0 0 700.000000 700.000000"
 preserveAspectRatio="xMidYMid meet">
<metadata>
Created by potrace 1.14, written by Peter Selinger 2001-2017
</metadata>
<g transform="translate(0.000000,700.000000) scale(0.100000,-0.100000)"
fill="#000000" stroke="none">
<path d="M3106 6753 c1 -137 3 -313 3 -393 l1 -145 78 -2 c42 -1 100 -4 127
-7 28 -3 82 -8 120 -11 126 -11 346 -61 525 -119 263 -85 480 -196 744 -380
205 -143 504 -450 653 -671 100 -149 188 -308 256 -465 65 -149 145 -428 179
-625 35 -202 30 -742 -8 -905 -3 -14 -8 -36 -10 -50 -3 -14 -12 -54 -20 -90
-9 -36 -17 -73 -19 -83 -2 -11 -18 -62 -35 -114 -141 -432 -359 -792 -670
-1104 -107 -107 -218 -206 -285 -254 -16 -11 -33 -25 -39 -31 -37 -36 -242
-158 -391 -232 -285 -142 -600 -238 -875 -267 -78 -8 -228 -18 -280 -19 l-55
-1 1 373 c1 206 5 377 10 382 5 4 54 11 108 14 54 4 102 8 105 10 3 2 32 7 64
10 32 4 64 9 70 11 7 3 24 7 40 10 58 11 78 16 163 41 234 67 486 191 659 323
242 186 387 345 543 596 57 93 115 205 106 205 -3 0 1 11 10 24 8 13 33 77 55
141 78 226 111 514 87 770 -25 280 -143 590 -331 875 -77 116 -272 324 -405
432 -235 191 -651 379 -934 424 -21 3 -48 7 -60 10 -38 7 -160 17 -226 18
l-65 1 -2 370 c0 204 -2 374 -2 378 -1 8 -80 5 -261 -9 -201 -16 -547 -99
-730 -176 -158 -67 -201 -88 -295 -140 -124 -70 -324 -204 -421 -282 -126
-101 -321 -299 -418 -424 -11 -15 -24 -31 -29 -37 -208 -256 -424 -721 -492
-1060 -18 -89 -34 -187 -40 -240 -4 -33 -10 -87 -14 -120 -8 -74 -6 -396 3
-485 32 -307 116 -605 254 -902 245 -526 695 -985 1227 -1251 212 -106 379
-167 585 -216 131 -31 154 -36 229 -47 25 -4 55 -8 66 -10 20 -4 112 -11 242
-19 40 -2 77 -6 82 -9 5 -3 10 -36 11 -73 4 -161 9 -438 9 -564 l1 -135 48 2
c26 2 106 5 177 8 161 8 201 12 380 42 247 42 582 145 820 253 108 49 308 152
326 167 8 8 19 14 24 14 5 0 72 43 149 94 409 274 749 619 1017 1031 130 199
287 520 357 730 103 307 170 622 189 885 16 223 4 619 -22 760 -3 14 -7 43
-10 65 -3 22 -7 51 -10 65 -3 14 -8 41 -11 60 -3 19 -14 64 -24 100 -9 36 -30
112 -45 170 -28 111 -38 140 -105 315 -123 319 -351 709 -565 964 -82 97 -271
290 -390 398 -219 198 -534 404 -830 544 -311 147 -762 273 -1085 304 -36 4
-81 8 -100 10 -19 3 -94 7 -165 10 l-131 5 2 -247z m-11 -1681 c0 -215 -4
-355 -10 -361 -6 -5 -38 -12 -72 -15 -52 -5 -133 -20 -223 -41 -70 -16 -237
-94 -330 -153 -269 -171 -468 -474 -521 -790 -15 -89 -19 -270 -7 -357 58
-454 373 -839 804 -983 93 -32 253 -62 324 -62 l41 0 -4 -358 c-2 -197 -7
-365 -12 -372 -6 -9 -33 -11 -114 -6 -115 6 -129 8 -271 36 -88 18 -198 49
-245 70 -327 142 -433 207 -630 384 -121 110 -196 187 -261 273 -159 210 -270
448 -339 728 -37 150 -36 143 -39 395 -5 296 20 458 101 678 66 177 205 430
295 538 133 159 242 266 353 349 22 16 42 33 45 36 15 18 199 127 285 169 253
123 558 198 800 195 l30 -1 0 -352z m140 -407 c407 -41 803 -310 998 -677 107
-202 146 -486 97 -701 -77 -332 -309 -626 -632 -801 -128 -69 -298 -124 -433
-140 -27 -4 -69 -9 -91 -12 -27 -4 -44 -2 -49 6 -10 16 -14 122 -15 450 -1
152 -4 280 -8 286 -4 6 -33 16 -64 22 -145 28 -276 147 -318 287 -17 55 -21
166 -9 212 39 145 172 277 309 309 19 4 38 9 43 10 4 1 16 2 27 3 20 1 20 8
20 381 l0 380 33 -5 c17 -2 59 -7 92 -10z"/>
</g>
</svg>
